<?xml version="1.0" ?><svg style="enable-background:new 0 0 64 64;" version="1.1" viewBox="0 0 64 64" xml:space="preserve" xmlns="http://www.w3.org/2000/svg" xmlns:xlink="http://www.w3.org/1999/xlink"><style type="text/css">
	.st0{fill:#231F20;}
</style><g id="Guide"/><g id="search"/><g id="price_tag"/><g id="coupon"><g><path class="st0" d="M57.3,26.7c1.1-0.5,1.7-1.6,1.7-2.7V16c0-1.7-1.3-3-3-3H8c-1.7,0-3,1.3-3,3v7.8C5,25,5.7,26,6.8,26.5    c2.1,1,3.5,3.1,3.5,5.5S9,36.5,6.8,37.5C5.7,38,5,39,5,40.2V48c0,1.7,1.3,3,3,3h48c1.7,0,3-1.3,3-3v-7.9c0-1.1-0.7-2.2-1.7-2.7    c-2-1-3.3-3.1-3.3-5.3S55.3,27.7,57.3,26.7z M52,32c0,3,1.7,5.8,4.4,7.1c0.4,0.2,0.6,0.6,0.6,0.9V48c0,0.6-0.4,1-1,1H8    c-0.6,0-1-0.4-1-1v-7.8c0-0.4,0.3-0.8,0.7-0.9c2.9-1.3,4.7-4.2,4.7-7.3s-1.8-6-4.7-7.3C7.3,24.5,7,24.2,7,23.8V16c0-0.6,0.4-1,1-1    h48c0.6,0,1,0.4,1,1v7.9c0,0.4-0.2,0.7-0.6,0.9C53.7,26.2,52,29,52,32z"/><path class="st0" d="M39,34c-2.8,0-5,2.2-5,5s2.2,5,5,5s5-2.2,5-5S41.8,34,39,34z M39,42c-1.7,0-3-1.3-3-3s1.3-3,3-3s3,1.3,3,3    S40.7,42,39,42z"/><path class="st0" d="M25,30c2.8,0,5-2.2,5-5s-2.2-5-5-5s-5,2.2-5,5S22.2,30,25,30z M25,22c1.7,0,3,1.3,3,3s-1.3,3-3,3s-3-1.3-3-3    S23.3,22,25,22z"/><path class="st0" d="M43,23.9c0-0.8-0.3-1.5-0.9-2.1c-1.1-1.1-3-1.1-4.1,0L21.9,38c-0.5,0.5-0.9,1.3-0.9,2.1    c0,0.8,0.3,1.5,0.9,2.1c0.6,0.6,1.3,0.9,2.1,0.9c0.7,0,1.5-0.3,2.1-0.9L42.1,26C42.7,25.4,43,24.7,43,23.9z M40.7,24.5    C40.7,24.5,40.7,24.5,40.7,24.5L24.5,40.7c-0.4,0.4-0.9,0.4-1.3,0c-0.2-0.2-0.3-0.4-0.3-0.6s0.1-0.5,0.3-0.6l16.2-16.2    c0.2-0.2,0.4-0.3,0.6-0.3s0.5,0.1,0.6,0.3c0.2,0.2,0.3,0.4,0.3,0.6S40.9,24.4,40.7,24.5z"/></g></g><g id="credit_card"/><g id="shipping"/><g id="notification"/><g id="money"/><g id="discount"/><g id="wishlist"/><g id="location"/><g id="shopping_bag_1_"/><g id="calculator"/><g id="mobile_ecommerce"/><g id="koin"/><g id="setting"/><g id="online_shop"/><g id="return"/><g id="box"/><g id="internet"/><g id="info"/><g id="gift"/><g id="basket_1_"/><g id="calender"/><g id="store"/><g id="wallet"/></svg>